G75*
G70*
%OFA0B0*%
%FSLAX24Y24*%
%IPPOS*%
%LPD*%
%AMOC8*
5,1,8,0,0,1.08239X$1,22.5*
%
%ADD10R,0.0594X0.0594*%
%ADD11C,0.0660*%
%ADD12C,0.0594*%
%ADD13C,0.0768*%
%ADD14OC8,0.0520*%
%ADD15C,0.0600*%
%ADD16C,0.0100*%
%ADD17C,0.0400*%
%ADD18C,0.0396*%
%ADD19C,0.0390*%
D10*
X033676Y005637D03*
X035676Y004637D03*
D11*
X035676Y003637D03*
X033676Y003637D03*
D12*
X032676Y003637D03*
X031676Y003637D03*
X030676Y003637D03*
X029676Y003637D03*
X028676Y003637D03*
X027676Y003637D03*
X026676Y003637D03*
X025676Y003637D03*
X024676Y003637D03*
X023676Y003637D03*
X023676Y004637D03*
X024676Y004637D03*
X025676Y004637D03*
X026676Y004637D03*
X027676Y004637D03*
X028676Y004637D03*
X029676Y004637D03*
X030676Y004637D03*
X030676Y005637D03*
X031676Y005637D03*
X032676Y005637D03*
X032676Y004637D03*
X031676Y004637D03*
X033676Y004637D03*
X034676Y004637D03*
X034676Y003637D03*
X033676Y006637D03*
X032676Y006637D03*
X031676Y006637D03*
X030676Y006637D03*
D13*
X007042Y004396D02*
X007042Y003628D01*
X008420Y003628D02*
X008420Y004396D01*
X009798Y004396D02*
X009798Y003628D01*
X011176Y003628D02*
X011176Y004396D01*
X012542Y004396D02*
X012542Y003628D01*
X013920Y003628D02*
X013920Y004396D01*
X015298Y004396D02*
X015298Y003628D01*
X016676Y003628D02*
X016676Y004396D01*
X018426Y004396D02*
X018426Y003628D01*
X019804Y003628D02*
X019804Y004396D01*
X021182Y004396D02*
X021182Y003628D01*
X034792Y006887D02*
X035560Y006887D01*
X035560Y008265D02*
X034792Y008265D01*
X034792Y009643D02*
X035560Y009643D01*
X035560Y011021D02*
X034792Y011021D01*
X034792Y012762D02*
X035560Y012762D01*
X035560Y014140D02*
X034792Y014140D01*
X030676Y023003D02*
X030676Y023771D01*
X029298Y023771D02*
X029298Y023003D01*
X027920Y023003D02*
X027920Y023771D01*
X026542Y023771D02*
X026542Y023003D01*
X024801Y023003D02*
X024801Y023771D01*
X023423Y023771D02*
X023423Y023003D01*
X022045Y023003D02*
X022045Y023771D01*
X020667Y023771D02*
X020667Y023003D01*
X017926Y023003D02*
X017926Y023771D01*
X016548Y023771D02*
X016548Y023003D01*
X015170Y023003D02*
X015170Y023771D01*
X012176Y023771D02*
X012176Y023003D01*
X010798Y023003D02*
X010798Y023771D01*
X007551Y023771D02*
X007551Y023003D01*
X006173Y023003D02*
X006173Y023771D01*
X004795Y023771D02*
X004795Y023003D01*
X005060Y020637D02*
X004292Y020637D01*
X004292Y019259D02*
X005060Y019259D01*
X005060Y017881D02*
X004292Y017881D01*
X004292Y016503D02*
X005060Y016503D01*
X005060Y014271D02*
X004292Y014271D01*
X004292Y012893D02*
X005060Y012893D01*
X005060Y011515D02*
X004292Y011515D01*
X004292Y010137D02*
X005060Y010137D01*
X005060Y008762D02*
X004292Y008762D01*
X004292Y007384D02*
X005060Y007384D01*
X005060Y006006D02*
X004292Y006006D01*
X004292Y004628D02*
X005060Y004628D01*
D14*
X009551Y018762D03*
X010051Y019512D03*
X010551Y018762D03*
D15*
X015676Y020837D02*
X015676Y021437D01*
X016676Y021437D02*
X016676Y020837D01*
X017676Y020837D02*
X017676Y021437D01*
X030626Y018637D02*
X031226Y018637D01*
X031226Y017637D02*
X030626Y017637D01*
X030626Y016637D02*
X031226Y016637D01*
X033126Y016762D02*
X033726Y016762D01*
X035376Y016637D02*
X035976Y016637D01*
X035976Y017637D02*
X035376Y017637D01*
X033726Y017762D02*
X033126Y017762D01*
X033126Y018762D02*
X033726Y018762D01*
X035376Y018637D02*
X035976Y018637D01*
X027426Y010437D02*
X027426Y009837D01*
X026426Y009837D02*
X026426Y010437D01*
X025426Y010437D02*
X025426Y009837D01*
X021476Y010637D02*
X020876Y010637D01*
X020876Y011637D02*
X021476Y011637D01*
X021476Y012637D02*
X020876Y012637D01*
D16*
X022926Y012737D02*
X022926Y012087D01*
X024676Y010137D01*
X024676Y009137D01*
X026826Y008187D01*
X027676Y008262D01*
X028001Y007937D01*
X028676Y007637D01*
X031926Y007837D01*
X032526Y008437D01*
X032526Y008737D01*
X030976Y010287D01*
X030976Y013387D01*
X030051Y013137D02*
X030051Y008512D01*
X032176Y008587D01*
X032726Y008337D02*
X032726Y008837D01*
X031326Y010237D01*
X031326Y014237D01*
X033426Y016337D01*
X033426Y016762D01*
X034176Y016262D02*
X032426Y011887D01*
X033176Y012637D02*
X033176Y005387D01*
X036176Y005387D01*
X036176Y003137D01*
X031176Y003137D01*
X030676Y003637D01*
X030776Y004087D02*
X030126Y004087D01*
X029676Y003637D01*
X029226Y004187D02*
X029676Y004637D01*
X029226Y004187D02*
X027476Y004187D01*
X027226Y004437D01*
X027226Y004737D01*
X026376Y005587D01*
X024026Y005587D01*
X021426Y008187D01*
X020126Y008187D01*
X017476Y010837D01*
X012276Y010837D01*
X012776Y011262D02*
X017551Y011262D01*
X019551Y009262D01*
X021301Y009262D01*
X022776Y007787D01*
X026276Y007787D01*
X026426Y007937D01*
X027376Y007937D01*
X029376Y005812D01*
X028151Y005287D02*
X026976Y005287D01*
X026326Y005937D01*
X024176Y005937D01*
X024126Y005237D02*
X024101Y005212D01*
X021426Y007887D01*
X020126Y007887D01*
X019126Y008887D01*
X018551Y009262D01*
X013676Y009262D01*
X017676Y012012D02*
X017676Y014637D01*
X015226Y017087D01*
X015176Y017637D02*
X014426Y017637D01*
X007551Y023387D01*
X009851Y021962D02*
X012876Y021837D01*
X010676Y020137D02*
X010601Y020162D01*
X009676Y020887D01*
X009401Y020662D01*
X009926Y020387D02*
X009426Y019512D01*
X008051Y019512D01*
X008051Y021762D01*
X009926Y020387D02*
X012176Y018637D01*
X012051Y018012D01*
X013801Y016387D01*
X013826Y017637D02*
X012926Y017637D01*
X012926Y018387D01*
X010676Y020137D01*
X009551Y018762D02*
X009826Y018387D01*
X016026Y012187D01*
X016751Y012562D01*
X017676Y012012D02*
X020051Y009637D01*
X021676Y009637D01*
X021301Y008762D02*
X020076Y008737D01*
X021301Y008762D02*
X022551Y007637D01*
X022601Y007587D01*
X026951Y007587D01*
X027801Y005762D01*
X028476Y005087D02*
X032876Y005087D01*
X033226Y004737D01*
X033226Y004437D01*
X033476Y004187D01*
X035226Y004187D01*
X035676Y004637D01*
X036426Y005887D02*
X034301Y005887D01*
X034051Y007387D01*
X034051Y014012D01*
X034676Y015387D01*
X034676Y024387D01*
X023926Y024387D01*
X023926Y021512D01*
X025176Y021387D02*
X025176Y022012D01*
X034426Y022012D01*
X034426Y015887D01*
X033176Y012637D01*
X030051Y013137D02*
X027676Y013137D01*
X028676Y012637D02*
X025526Y012637D01*
X025526Y013187D01*
X025526Y012637D02*
X024576Y012637D01*
X024176Y013537D02*
X023026Y013537D01*
X019076Y017487D01*
X018926Y017612D01*
X017501Y017612D01*
X017426Y017387D01*
X015976Y017362D01*
X014226Y019237D01*
X014776Y019237D02*
X014776Y018987D01*
X015426Y018262D01*
X015926Y018637D01*
X017551Y018637D01*
X017951Y018037D01*
X018401Y018412D02*
X019551Y018012D01*
X021126Y016187D01*
X022576Y015937D02*
X029226Y015937D01*
X030926Y017637D01*
X031826Y018137D02*
X029301Y018137D01*
X029301Y021012D01*
X028176Y021512D02*
X031176Y021512D01*
X032426Y020387D01*
X032551Y017762D01*
X033426Y017762D01*
X033426Y017737D01*
X029201Y013512D01*
X029176Y013537D01*
X024176Y013537D01*
X024176Y011637D01*
X024801Y011137D01*
X029176Y011012D01*
X029176Y008062D01*
X031251Y007362D02*
X032676Y007387D01*
X032726Y008337D01*
X036426Y005887D02*
X036426Y002887D01*
X029176Y002887D01*
X028676Y003387D01*
X028676Y003637D01*
X028026Y004637D02*
X027676Y004637D01*
X028026Y004637D02*
X028476Y005087D01*
X025976Y005237D02*
X024126Y005237D01*
X024101Y005212D02*
X024676Y004637D01*
X024226Y004737D02*
X024226Y004437D01*
X024476Y004187D01*
X025226Y004187D01*
X025676Y004637D01*
X024676Y003637D02*
X024226Y004087D01*
X023576Y004087D01*
X022726Y004937D01*
X022226Y005562D01*
X023076Y005362D02*
X023101Y005237D01*
X023076Y005362D02*
X021676Y006762D01*
X021176Y006637D01*
X019804Y005265D01*
X019804Y004012D01*
X019826Y004037D01*
X021426Y007537D02*
X024226Y004737D01*
X021426Y007537D02*
X021276Y007537D01*
X023576Y008137D02*
X023326Y008762D01*
X023576Y008137D02*
X025426Y008137D01*
X030901Y004212D02*
X031326Y004637D01*
X031676Y004637D01*
X030926Y004187D02*
X030901Y004212D01*
X030776Y004087D01*
X030926Y004187D02*
X032776Y004187D01*
X033326Y003637D01*
X033676Y003637D01*
X029176Y013487D02*
X029201Y013512D01*
X025526Y013887D02*
X024526Y014887D01*
X024488Y014873D01*
X024301Y015387D01*
X024488Y014873D02*
X024801Y014012D01*
X025676Y016512D02*
X027426Y016512D01*
X025676Y016512D02*
X025676Y021762D01*
X034176Y021762D01*
X034176Y016262D01*
X032301Y017762D02*
X032176Y017637D01*
X030926Y016637D01*
X032301Y017762D02*
X032283Y018505D01*
X032026Y018737D01*
X029301Y018137D02*
X027426Y018137D01*
X026676Y018887D01*
X028051Y021262D02*
X028176Y021512D01*
X020826Y018337D02*
X019876Y019287D01*
X015226Y019287D01*
X014926Y019587D01*
X013926Y019587D01*
X013426Y019387D01*
X014601Y018012D01*
X015176Y017637D02*
X016426Y016762D01*
X016176Y018087D02*
X017276Y018212D01*
X015376Y018887D02*
X019776Y018887D01*
X020126Y018162D01*
X012926Y017637D02*
X012876Y017637D01*
X009626Y016737D02*
X008076Y018287D01*
D17*
X008076Y018287D03*
X009626Y016737D03*
X013826Y017637D03*
X014601Y018012D03*
X015376Y018887D03*
X014776Y019237D03*
X014226Y019237D03*
X016176Y018087D03*
X017276Y018212D03*
X017501Y017612D03*
X017951Y018037D03*
X018401Y018412D03*
X018926Y017612D03*
X020126Y018162D03*
X020826Y018337D03*
X021126Y016187D03*
X022576Y015937D03*
X026676Y018887D03*
X031826Y018137D03*
X032026Y018737D03*
X030976Y013387D03*
X028676Y012637D03*
X024576Y012637D03*
X022926Y012737D03*
X016751Y012562D03*
X012776Y011262D03*
X012276Y010837D03*
X013676Y009262D03*
X020076Y008737D03*
X021276Y007537D03*
X023326Y008762D03*
X025426Y008137D03*
X026951Y007587D03*
X028001Y007937D03*
X029176Y008062D03*
X031251Y007362D03*
X032176Y008587D03*
X029376Y005812D03*
X025976Y005237D03*
X022226Y005562D03*
X015226Y017087D03*
X009401Y020662D03*
D18*
X008051Y021762D03*
X016426Y016762D03*
X013801Y016387D03*
X024301Y015387D03*
X024801Y014012D03*
X027676Y013137D03*
X032426Y011887D03*
X027426Y016512D03*
X029301Y021012D03*
X028051Y021262D03*
X025176Y021387D03*
X023926Y021512D03*
X021676Y009637D03*
X027801Y005762D03*
D19*
X028151Y005287D03*
X024176Y005937D03*
X023101Y005237D03*
X025526Y013187D03*
X025526Y013887D03*
X012876Y021837D03*
X009851Y021962D03*
M02*
