G75*
G70*
%OFA0B0*%
%FSLAX24Y24*%
%IPPOS*%
%LPD*%
%AMOC8*
5,1,8,0,0,1.08239X$1,22.5*
%
%ADD10R,0.0674X0.0674*%
%ADD11C,0.0740*%
%ADD12C,0.0674*%
%ADD14R,0.0316X0.0946*%
%ADD15R,0.0474X0.0513*%
%ADD16R,0.0340X0.0880*%
%ADD17R,0.0513X0.0474*%
%ADD18C,0.0848*%
%ADD19OC8,0.0600*%
%ADD20R,0.0790X0.0710*%
%ADD21R,0.0237X0.0552*%
%ADD22C,0.0680*%
%ADD24R,0.1064X0.0867*%
%ADD25R,0.1379X0.0867*%
%ADD26R,0.1300X0.0277*%
%ADD28R,0.0336X0.0749*%
%ADD29C,0.0480*%
%ADD30C,0.0476*%
%ADD31C,0.0470*%
D10*
X033676Y005637D03*
X035676Y004637D03*
D11*
X035676Y003637D03*
X033676Y003637D03*
D12*
X032676Y003637D03*
X031676Y003637D03*
X030676Y003637D03*
X029676Y003637D03*
X028676Y003637D03*
X027676Y003637D03*
X026676Y003637D03*
X025676Y003637D03*
X024676Y003637D03*
X023676Y003637D03*
X023676Y004637D03*
X024676Y004637D03*
X025676Y004637D03*
X026676Y004637D03*
X027676Y004637D03*
X028676Y004637D03*
X029676Y004637D03*
X030676Y004637D03*
X030676Y005637D03*
X031676Y005637D03*
X032676Y005637D03*
X032676Y004637D03*
X031676Y004637D03*
X033676Y004637D03*
X034676Y004637D03*
X034676Y003637D03*
X033676Y006637D03*
X032676Y006637D03*
X031676Y006637D03*
X030676Y006637D03*
D14*
X022426Y011988D03*
X022926Y011988D03*
X023426Y011988D03*
X023926Y011988D03*
X023926Y014035D03*
X023426Y014035D03*
X022926Y014035D03*
X022426Y014035D03*
X025676Y008910D03*
X026176Y008910D03*
X026676Y008910D03*
X027176Y008910D03*
X027676Y008910D03*
X028176Y008910D03*
X028676Y008910D03*
X029176Y008910D03*
X029176Y006863D03*
X028676Y006863D03*
X028176Y006863D03*
X027676Y006863D03*
X027176Y006863D03*
X026676Y006863D03*
X026176Y006863D03*
X025676Y006863D03*
D15*
X025511Y005762D03*
X024842Y005762D03*
X026217Y005762D03*
X026886Y005762D03*
X023926Y009177D03*
X023926Y009846D03*
X023136Y009887D03*
X022467Y009887D03*
X023342Y010637D03*
X024011Y010637D03*
X018761Y014512D03*
X018092Y014512D03*
X018092Y015387D03*
X018761Y015387D03*
X019967Y015387D03*
X020636Y015387D03*
X022342Y015387D03*
X023011Y015387D03*
X022967Y016387D03*
X023636Y016387D03*
X026842Y015637D03*
X027511Y015637D03*
X028342Y015637D03*
X029011Y015637D03*
X030842Y015137D03*
X031511Y015137D03*
X029176Y016802D03*
X029176Y017471D03*
X029176Y018302D03*
X029176Y018971D03*
X027511Y017637D03*
X026842Y017637D03*
X028092Y020512D03*
X028761Y020512D03*
X026261Y020637D03*
X025592Y020637D03*
X016676Y018471D03*
X016676Y017802D03*
X014761Y019887D03*
X014092Y019887D03*
X012426Y018221D03*
X012426Y017552D03*
X008761Y020137D03*
X008092Y020137D03*
X007261Y020137D03*
X006592Y020137D03*
X006592Y021137D03*
X007261Y021137D03*
X008092Y021137D03*
X008761Y021137D03*
X008136Y018887D03*
X007467Y018887D03*
X032467Y011137D03*
X033136Y011137D03*
X033136Y010137D03*
X032467Y010137D03*
X032467Y009137D03*
X033136Y009137D03*
X033136Y008012D03*
X032467Y008012D03*
D16*
X030176Y011927D03*
X029676Y011927D03*
X029176Y011927D03*
X028676Y011927D03*
X028176Y011927D03*
X027676Y011927D03*
X027176Y011927D03*
X027176Y014347D03*
X027676Y014347D03*
X028176Y014347D03*
X028676Y014347D03*
X029176Y014347D03*
X029676Y014347D03*
X030176Y014347D03*
X020551Y016802D03*
X020051Y016802D03*
X019551Y016802D03*
X019051Y016802D03*
X018551Y016802D03*
X018051Y016802D03*
X017551Y016802D03*
X017551Y019222D03*
X018051Y019222D03*
X018551Y019222D03*
X019051Y019222D03*
X019551Y019222D03*
X020051Y019222D03*
X020551Y019222D03*
D17*
X021676Y018971D03*
X021676Y018302D03*
X021676Y017471D03*
X021676Y016802D03*
X020636Y014512D03*
X019967Y014512D03*
X026176Y013471D03*
X026176Y012802D03*
X031176Y009971D03*
X031176Y009302D03*
X024386Y008262D03*
X023717Y008262D03*
X020636Y020262D03*
X019967Y020262D03*
X019386Y021137D03*
X018717Y021137D03*
X013801Y021346D03*
X013801Y020677D03*
X010426Y020677D03*
X010426Y021346D03*
X023676Y020971D03*
X023676Y020302D03*
X024676Y020302D03*
X024676Y020971D03*
D18*
X007042Y004396D02*
X007042Y003628D01*
X008420Y003628D02*
X008420Y004396D01*
X009798Y004396D02*
X009798Y003628D01*
X011176Y003628D02*
X011176Y004396D01*
X012542Y004396D02*
X012542Y003628D01*
X013920Y003628D02*
X013920Y004396D01*
X015298Y004396D02*
X015298Y003628D01*
X016676Y003628D02*
X016676Y004396D01*
X018426Y004396D02*
X018426Y003628D01*
X019804Y003628D02*
X019804Y004396D01*
X021182Y004396D02*
X021182Y003628D01*
X034792Y006887D02*
X035560Y006887D01*
X035560Y008265D02*
X034792Y008265D01*
X034792Y009643D02*
X035560Y009643D01*
X035560Y011021D02*
X034792Y011021D01*
X034792Y012762D02*
X035560Y012762D01*
X035560Y014140D02*
X034792Y014140D01*
X030676Y023003D02*
X030676Y023771D01*
X029298Y023771D02*
X029298Y023003D01*
X027920Y023003D02*
X027920Y023771D01*
X026542Y023771D02*
X026542Y023003D01*
X024801Y023003D02*
X024801Y023771D01*
X023423Y023771D02*
X023423Y023003D01*
X022045Y023003D02*
X022045Y023771D01*
X020667Y023771D02*
X020667Y023003D01*
X017926Y023003D02*
X017926Y023771D01*
X016548Y023771D02*
X016548Y023003D01*
X015170Y023003D02*
X015170Y023771D01*
X012176Y023771D02*
X012176Y023003D01*
X010798Y023003D02*
X010798Y023771D01*
X007551Y023771D02*
X007551Y023003D01*
X006173Y023003D02*
X006173Y023771D01*
X004795Y023771D02*
X004795Y023003D01*
X005060Y020637D02*
X004292Y020637D01*
X004292Y019259D02*
X005060Y019259D01*
X005060Y017881D02*
X004292Y017881D01*
X004292Y016503D02*
X005060Y016503D01*
X005060Y014271D02*
X004292Y014271D01*
X004292Y012893D02*
X005060Y012893D01*
X005060Y011515D02*
X004292Y011515D01*
X004292Y010137D02*
X005060Y010137D01*
X005060Y008762D02*
X004292Y008762D01*
X004292Y007384D02*
X005060Y007384D01*
X005060Y006006D02*
X004292Y006006D01*
X004292Y004628D02*
X005060Y004628D01*
D19*
X009551Y018762D03*
X010051Y019512D03*
X010551Y018762D03*
D20*
X027176Y020077D03*
X027176Y021197D03*
X030176Y021197D03*
X030176Y020077D03*
D21*
X014310Y018694D03*
X014054Y018694D03*
X013798Y018694D03*
X013542Y018694D03*
X013542Y017080D03*
X013798Y017080D03*
X014054Y017080D03*
X014310Y017080D03*
D22*
X015676Y020837D02*
X015676Y021437D01*
X016676Y021437D02*
X016676Y020837D01*
X017676Y020837D02*
X017676Y021437D01*
X030626Y018637D02*
X031226Y018637D01*
X031226Y017637D02*
X030626Y017637D01*
X030626Y016637D02*
X031226Y016637D01*
X033126Y016762D02*
X033726Y016762D01*
X035376Y016637D02*
X035976Y016637D01*
X035976Y017637D02*
X035376Y017637D01*
X033726Y017762D02*
X033126Y017762D01*
X033126Y018762D02*
X033726Y018762D01*
X035376Y018637D02*
X035976Y018637D01*
X027426Y010437D02*
X027426Y009837D01*
X026426Y009837D02*
X026426Y010437D01*
X025426Y010437D02*
X025426Y009837D01*
X021476Y010637D02*
X020876Y010637D01*
X020876Y011637D02*
X021476Y011637D01*
X021476Y012637D02*
X020876Y012637D01*
D24*
X035357Y020385D03*
X035357Y023889D03*
D25*
X033034Y023889D03*
X033034Y020385D03*
D26*
X032995Y021507D03*
X032995Y021822D03*
X032995Y022137D03*
X032995Y022452D03*
X032995Y022767D03*
D28*
X014676Y012019D03*
X014176Y012019D03*
X013676Y012019D03*
X013176Y012019D03*
X012676Y012019D03*
X012176Y012019D03*
X011676Y012019D03*
X011176Y012019D03*
X010676Y012019D03*
X010176Y012019D03*
X009676Y012019D03*
X009176Y012019D03*
X008676Y012019D03*
X008176Y012019D03*
X008176Y008255D03*
X008676Y008255D03*
X009176Y008255D03*
X009676Y008255D03*
X010176Y008255D03*
X010676Y008255D03*
X011176Y008255D03*
X011676Y008255D03*
X012176Y008255D03*
X012676Y008255D03*
X013176Y008255D03*
X013676Y008255D03*
X014176Y008255D03*
X014676Y008255D03*
D29*
X013676Y009262D03*
X012276Y010837D03*
X012776Y011262D03*
X016751Y012562D03*
X020076Y008737D03*
X021276Y007537D03*
X023326Y008762D03*
X025426Y008137D03*
X026951Y007587D03*
X028001Y007937D03*
X029176Y008062D03*
X031251Y007362D03*
X032176Y008587D03*
X029376Y005812D03*
X025976Y005237D03*
X022226Y005562D03*
X022926Y012737D03*
X024576Y012637D03*
X028676Y012637D03*
X030976Y013387D03*
X031826Y018137D03*
X032026Y018737D03*
X026676Y018887D03*
X022576Y015937D03*
X021126Y016187D03*
X018926Y017612D03*
X017951Y018037D03*
X018401Y018412D03*
X017276Y018212D03*
X017501Y017612D03*
X016176Y018087D03*
X015376Y018887D03*
X014776Y019237D03*
X014226Y019237D03*
X014601Y018012D03*
X013826Y017637D03*
X015226Y017087D03*
X020126Y018162D03*
X020826Y018337D03*
X009626Y016737D03*
X008076Y018287D03*
X009401Y020662D03*
D30*
X008051Y021762D03*
X016426Y016762D03*
X013801Y016387D03*
X024301Y015387D03*
X024801Y014012D03*
X027676Y013137D03*
X032426Y011887D03*
X027426Y016512D03*
X029301Y021012D03*
X028051Y021262D03*
X025176Y021387D03*
X023926Y021512D03*
X021676Y009637D03*
X027801Y005762D03*
D31*
X028151Y005287D03*
X024176Y005937D03*
X023101Y005237D03*
X025526Y013187D03*
X025526Y013887D03*
X012876Y021837D03*
X009851Y021962D03*
M02*
