%
M48
M72
T01C0.0230
T02C0.0236
T03C0.0240
T04C0.0320
T05C0.0394
T06C0.0400
T07C0.0512
%
T01
X23101Y5237
X24176Y5937
X28151Y5287
X25526Y13187
X25526Y13887
X12876Y21837
X9851Y21962
T02
X8051Y21762
X16426Y16762
X13801Y16387
X24301Y15387
X24801Y14012
X27676Y13137
X32426Y11887
X27426Y16512
X29301Y21012
X28051Y21262
X25176Y21387
X23926Y21512
X21676Y9637
X27801Y5762
T03
X29376Y5812
X31251Y7362
X32176Y8587
X29176Y8062
X28001Y7937
X26951Y7587
X25426Y8137
X23326Y8762
X21276Y7537
X20076Y8737
X22226Y5562
X25976Y5237
X16751Y12562
X12776Y11262
X12276Y10837
X13676Y9262
X22926Y12737
X24576Y12637
X28676Y12637
X30976Y13387
X31826Y18137
X32026Y18737
X26676Y18887
X22576Y15937
X21126Y16187
X18926Y17612
X17951Y18037
X18401Y18412
X17276Y18212
X17501Y17612
X16176Y18087
X15376Y18887
X14776Y19237
X14226Y19237
X14601Y18012
X13826Y17637
X15226Y17087
X20126Y18162
X20826Y18337
X9626Y16737
X8076Y18287
X9401Y20662
T04
X10051Y19512
X9551Y18762
X10551Y18762
T05
X30676Y6637
X31676Y6637
X32676Y6637
X33676Y6637
X33676Y5637
X32676Y5637
X31676Y5637
X30676Y5637
X30676Y4637
X29676Y4637
X28676Y4637
X27676Y4637
X26676Y4637
X25676Y4637
X24676Y4637
X23676Y4637
X23676Y3637
X24676Y3637
X25676Y3637
X26676Y3637
X27676Y3637
X28676Y3637
X29676Y3637
X30676Y3637
X31676Y3637
X32676Y3637
X33676Y3637
X34676Y3637
X35676Y3637
X35676Y4637
X34676Y4637
X33676Y4637
X32676Y4637
X31676Y4637
T06
X27426Y10137
X26426Y10137
X25426Y10137
X21176Y10637
X21176Y11637
X21176Y12637
X30926Y16637
X30926Y17637
X30926Y18637
X33426Y18762
X33426Y17762
X33426Y16762
X35676Y16637
X35676Y17637
X35676Y18637
X17676Y21137
X16676Y21137
X15676Y21137
T07
X7042Y4012
X8420Y4012
X9798Y4012
X11176Y4012
X12542Y4012
X13920Y4012
X15298Y4012
X16676Y4012
X18426Y4012
X19804Y4012
X21182Y4012
X35176Y6887
X35176Y8265
X35176Y9643
X35176Y11021
X35176Y12762
X35176Y14140
X30676Y23387
X29298Y23387
X27920Y23387
X26542Y23387
X24801Y23387
X23423Y23387
X22045Y23387
X20667Y23387
X17926Y23387
X16548Y23387
X15170Y23387
X12176Y23387
X10798Y23387
X7551Y23387
X6173Y23387
X4795Y23387
X4676Y20637
X4676Y19259
X4676Y17881
X4676Y16503
X4676Y14271
X4676Y12893
X4676Y11515
X4676Y10137
X4676Y8762
X4676Y7384
X4676Y6006
X4676Y4628
M30
